<?xml version="1.0" encoding="iso-8859-1"?>
<!-- Generator: Adobe Illustrator 19.0.0, SVG Export Plug-In . SVG Version: 6.00 Build 0)  -->
<svg version="1.1" id="Capa_1" xmlns="http://www.w3.org/2000/svg" xmlns:xlink="http://www.w3.org/1999/xlink" x="0px" y="0px"
	 viewBox="0 0 512 512" style="enable-background:new 0 0 512 512;" xml:space="preserve">
<path style="fill:#92C480;" d="M512,256c0,51.775-15.37,99.965-41.796,140.246C424.458,465.962,345.61,512,256,512
	c-89.621,0-168.479-46.049-214.215-115.775C15.36,355.944,0,307.764,0,256C0,114.615,114.615,0,256,0S512,114.615,512,256z"/>
<path style="fill:#E8566F;" d="M470.204,196.786v199.461C424.458,465.962,345.61,512,256,512
	c-89.621,0-168.479-46.049-214.215-115.775v-199.44H470.204z"/>
<g>
	<rect x="41.79" y="196.786" style="fill:#CC3746;" width="428.419" height="57.469"/>
	<polygon style="fill:#CC3746;" points="259.688,276.95 256,296.542 252.259,316.364 230.191,433.424 200.808,397.5 
		160.371,420.258 179.252,320.084 189.868,263.784 256,276.25 	"/>
	<polygon style="fill:#CC3746;" points="351.629,420.258 311.181,397.5 281.799,433.424 259.73,316.364 256,296.542 252.301,276.95 
		256,276.25 322.121,263.784 332.737,320.073 	"/>
</g>
<g>
	<polygon style="fill:#E8E4DB;" points="259.688,257.097 256,276.689 252.259,296.511 230.191,413.571 200.808,377.647 
		160.371,400.405 179.252,300.23 189.868,243.931 256,256.397 	"/>
	<polygon style="fill:#E8E4DB;" points="351.629,400.405 311.181,377.647 281.799,413.571 259.73,296.511 256,276.689 
		252.301,257.097 256,256.397 322.121,243.931 332.737,300.22 	"/>
</g>
<path style="fill:#E8566F;" d="M474.281,221.866H37.711c-8.136,0-14.731-6.595-14.731-14.731V69.414
	c0-8.136,6.595-14.731,14.731-14.731h436.57c8.136,0,14.731,6.595,14.731,14.731v137.723
	C489.012,215.271,482.417,221.866,474.281,221.866z"/>
<path style="fill:#CCC8BD;" d="M332.737,300.22c-11.734-5.329-23.27-11.588-34.377-18.129c-1.891,8.255-9.258,14.42-18.087,14.42
	H259.73L256,276.689l-3.741,19.822h-20.543c-8.819,0-16.196-6.165-18.077-14.42c-11.107,6.541-22.653,12.8-34.388,18.139
	l10.616-56.299L256,256.397l66.121-12.466L332.737,300.22z"/>
<path style="fill:#E8E4DB;" d="M221.626,257.459c-38.199,23.345-82.491,44.972-122.282,37.724
	c-11.157-2.032-18.436-16.918-15.016-31.218c6.084-25.443,20.711-26.281,20.711-44.242c0-18.153-13.253-21.108-19.776-42.338
	c-4.511-14.683,2.693-31.108,14.493-33.196c39.686-7.025,83.804,14.535,121.871,37.798V257.459z"/>
<g>
	<path style="fill:#CCC8BD;" d="M113.972,295.184c-11.157-2.032-18.436-16.918-15.016-31.218
		c6.084-25.443,20.711-26.281,20.711-44.242c0-18.153-13.253-21.108-19.776-42.338c-4.511-14.683,2.693-31.108,14.493-33.196
		c2.86-0.507,5.746-0.847,8.648-1.067c-7.872-0.568-15.657-0.282-23.276,1.067c-11.801,2.089-19.005,18.514-14.493,33.196
		c6.523,21.23,19.776,24.185,19.776,42.338c0,17.961-14.626,18.8-20.711,44.242c-3.42,14.3,3.859,29.186,15.016,31.218
		c7.748,1.412,15.668,1.716,23.679,1.138C119.985,296.092,116.964,295.728,113.972,295.184z"/>
	<path style="fill:#CCC8BD;" d="M221.626,233.138c-13.579,8.299-29.324,15.987-43.47,13.41c-3.966-0.722-6.554-6.014-5.338-11.098
		c2.163-9.045,7.362-9.342,7.362-15.728c0-6.453-4.711-7.503-7.03-15.051c-1.604-5.219,0.957-11.058,5.152-11.801
		c14.108-2.497,29.791,5.167,43.324,13.436L221.626,233.138L221.626,233.138z"/>
</g>
<path style="fill:#E8E4DB;" d="M290.367,257.459c38.199,23.345,82.49,44.972,122.282,37.724
	c11.157-2.032,18.436-16.918,15.016-31.218c-6.084-25.443-20.711-26.281-20.711-44.242c0-18.153,13.253-21.108,19.776-42.338
	c4.511-14.683-2.693-31.108-14.493-33.196c-39.686-7.025-83.804,14.535-121.871,37.798V257.459z"/>
<g>
	<path style="fill:#CCC8BD;" d="M290.367,233.138c13.579,8.299,29.324,15.987,43.47,13.41c3.966-0.722,6.554-6.014,5.338-11.098
		c-2.163-9.045-7.362-9.342-7.362-15.728c0-6.453,4.711-7.503,7.03-15.051c1.604-5.219-0.957-11.058-5.152-11.801
		c-14.108-2.497-29.791,5.167-43.324,13.436V233.138z"/>
	<path style="fill:#CCC8BD;" d="M280.276,162.775h-48.56c-10.251,0-18.562,8.31-18.562,18.562v76.772
		c0,10.251,8.31,18.562,18.562,18.562h48.56c10.251,0,18.562-8.31,18.562-18.562v-76.772
		C298.838,171.085,290.528,162.775,280.276,162.775z"/>
</g>
<path style="fill:#E8E4DB;" d="M275.052,179.133h-23.948c-10.251,0-18.562,8.31-18.562,18.562v44.057
	c0,10.252,8.31,18.562,18.562,18.562h23.948c10.251,0,18.562-8.31,18.562-18.562v-44.057
	C293.613,187.443,285.302,179.133,275.052,179.133z"/>
<g>
</g>
<g>
</g>
<g>
</g>
<g>
</g>
<g>
</g>
<g>
</g>
<g>
</g>
<g>
</g>
<g>
</g>
<g>
</g>
<g>
</g>
<g>
</g>
<g>
</g>
<g>
</g>
<g>
</g>
</svg>
